<svg width="20" height="20" viewBox="0 0 20 20" fill="none" xmlns="http://www.w3.org/2000/svg">
<g clip-path="url(#clip0_1853_1491)">
<path d="M18.5417 0H1.45833C0.654167 0 0 0.654167 0 1.45833V3.54167C0 4.34583 0.654167 5 1.45833 5H18.5417C19.3458 5 20 4.34583 20 3.54167V1.45833C20 0.654167 19.3458 0 18.5417 0Z" fill="white"/>
<path d="M1.45833 20H7.70833C8.5125 20 9.16667 19.3459 9.16667 18.5417V8.12502C9.16667 7.32085 8.5125 6.66669 7.70833 6.66669H1.45833C0.654167 6.66669 0 7.32085 0 8.12502V18.5417C0 19.3459 0.654167 20 1.45833 20Z" fill="white"/>
<path d="M18.5418 6.66669H12.2918C11.4877 6.66669 10.8335 7.32085 10.8335 8.12502V11.0417C10.8335 11.8459 11.4877 12.5 12.2918 12.5H18.5418C19.346 12.5 20.0002 11.8459 20.0002 11.0417V8.12502C20.0002 7.32085 19.346 6.66669 18.5418 6.66669Z" fill="white"/>
<path d="M18.5418 14.1667H12.2918C11.4877 14.1667 10.8335 14.8209 10.8335 15.625V18.5417C10.8335 19.3459 11.4877 20 12.2918 20H18.5418C19.346 20 20.0002 19.3459 20.0002 18.5417V15.625C20.0002 14.8209 19.346 14.1667 18.5418 14.1667Z" fill="white"/>
</g>
<defs>
<clipPath id="clip0_1853_1491">
<rect width="20" height="20" fill="white"/>
</clipPath>
</defs>
</svg>
